# xmcd
# 
# Track frame offsets:
#     150
#     15575
#     28315
#     43511
#     60534
#     73755
#     93823
# 
# Disc length: 1461
# 
# Revision: 2
# Processed by: cddbd v1.5.2PL0 Copyright (c) Steve Scherf et al.
# Submitted via: fre:ac v1.1beta1pre4
# 
DISCID=5405b307
DTITLE=Poison The Well - Distance Makes The Heart Grow Fonder
DYEAR=2002
DGENRE=Hardcore
TTITLE0=Grain Of Salt (What's The Use Of Having A Heart)
TTITLE1=Lost In Silence
TTITLE2=Torn
TTITLE3=Obstacle
TTITLE4=Material Christ
TTITLE5=A Whish For Wings That Work (Live)
TTITLE6=Artist's Rendering Of Me (Live)
EXTD=
EXTT0=
EXTT1=
EXTT2=
EXTT3=
EXTT4=
EXTT5=
EXTT6=
PLAYORDER=
